<?xml version="1.0" encoding="UTF-8" standalone="no"?>
<!-- Created with Inkscape (http://www.inkscape.org/) -->

<svg
   width="80"
   height="360"
   viewBox="0 0 80 360"
   version="1.1"
   id="svg5"
   xml:space="preserve"
   inkscape:export-filename="viperhead.png"
   inkscape:export-xdpi="96"
   inkscape:export-ydpi="96"
   inkscape:version="1.2 (dc2aedaf03, 2022-05-15)"
   sodipodi:docname="viper_texture.svg"
   xmlns:inkscape="http://www.inkscape.org/namespaces/inkscape"
   xmlns:sodipodi="http://sodipodi.sourceforge.net/DTD/sodipodi-0.dtd"
   xmlns="http://www.w3.org/2000/svg"
   xmlns:svg="http://www.w3.org/2000/svg"><sodipodi:namedview
     id="namedview7"
     pagecolor="#505050"
     bordercolor="#ffffff"
     borderopacity="1"
     inkscape:showpageshadow="0"
     inkscape:pageopacity="0"
     inkscape:pagecheckerboard="1"
     inkscape:deskcolor="#505050"
     inkscape:document-units="px"
     showgrid="true"
     inkscape:zoom="2.7812867"
     inkscape:cx="-73.706893"
     inkscape:cy="231.72728"
     inkscape:window-width="1920"
     inkscape:window-height="1012"
     inkscape:window-x="1920"
     inkscape:window-y="0"
     inkscape:window-maximized="1"
     inkscape:current-layer="layer1"><inkscape:grid
       type="xygrid"
       id="grid63"
       spacingx="5"
       spacingy="5"
       empspacing="1"
       empcolor="#0000f0"
       empopacity="0.25098039"
       originx="0"
       originy="0" /></sodipodi:namedview><defs
     id="defs2" /><g
     inkscape:groupmode="layer"
     id="layer4"
     inkscape:label="Bkg"
     style="display:inline"><rect
       style="color:#000000;overflow:visible;fill:#ffffff;fill-opacity:1;stroke:none;stroke-width:4;stroke-linecap:round;stroke-linejoin:round;stroke-dasharray:none;stroke-opacity:1;paint-order:fill markers stroke"
       id="rect1225"
       width="80"
       height="360"
       x="0"
       y="0"
       ry="0" /></g><g
     inkscape:groupmode="layer"
     id="layer3"
     inkscape:label="Pattern"
     style="display:inline"><path
       style="display:inline;fill:none;fill-rule:evenodd;stroke:#808080;stroke-width:4;stroke-linecap:round;stroke-linejoin:miter;stroke-dasharray:none;stroke-opacity:1"
       d="M 80,110 C 70,65 50,15 40,10 30.504461,15.401322 10,65 0,110"
       id="path387"
       sodipodi:nodetypes="ccc"
       clip-path="none" /><path
       style="fill:none;fill-rule:evenodd;stroke:#808080;stroke-width:5;stroke-linecap:round;stroke-linejoin:round;stroke-dasharray:none;stroke-opacity:1"
       d="m 55,120 c 0,5 -15,20 -40,30 25,10 25,20 50,30 -25,10 -25,20 -45,30 20.975167,10.42046 35,25 35,30"
       id="path1267"
       sodipodi:nodetypes="ccccc" /><path
       style="display:inline;fill:none;fill-rule:evenodd;stroke:#808080;stroke-width:5;stroke-linecap:round;stroke-linejoin:round;stroke-dasharray:none;stroke-opacity:1"
       d="m 55,240 c 0,5 -15,15 -25,30 5,15 15,15 20,30 -10,15 -10,20 -15,30 5,10 5,20 5,15"
       id="path1269"
       sodipodi:nodetypes="ccccc" /></g><g
     inkscape:label="SnakeSketch"
     inkscape:groupmode="layer"
     id="layer1"
     style="display:inline"><rect
       style="color:#000000;display:none;overflow:visible;fill:none;fill-opacity:1;stroke:#000000;stroke-width:2;stroke-linecap:round;stroke-linejoin:round;stroke-dasharray:none;stroke-opacity:1;paint-order:fill markers stroke"
       id="rect1523"
       width="20"
       height="230"
       x="30"
       y="10" /><path
       style="display:none;fill:none;fill-opacity:1;fill-rule:evenodd;stroke:#000000;stroke-width:1px;stroke-linecap:butt;stroke-linejoin:miter;stroke-opacity:1"
       d="M 30,3 C 20,15 10,40 5,60 0,80 0,90 5,100 c 5,10 10,10 15,15 0,5 0.05564,-0.11297 0,5 0,0 -4.856985,4.9964 -10,20 -5,20 -5,40 0,60 5,20 10,35 10,40 0,5 10,120 20,120 10,0 20,-115 20,-120 0,-5 5,-20 10,-40 5,-20 5,-40 0,-60 -5,-15 -10,-20 -10,-20 v -5 c 5,-5 10,-5 15,-15 C 80,90 80,80 75,60 70,40 60,15 50,3 45,0 35,0 30,3 Z"
       id="path65"
       sodipodi:nodetypes="cssccccczcccccsscc"
       inkscape:label="path65" /><rect
       style="color:#000000;display:none;overflow:visible;fill:none;fill-opacity:1;stroke:#000000;stroke-width:2;stroke-linecap:round;stroke-linejoin:round;stroke-dasharray:none;stroke-opacity:1;paint-order:fill markers stroke"
       id="rect1758"
       width="80"
       height="20"
       x="0"
       y="170"
       ry="0" /></g></svg>
